<?xml version="1.0" encoding="UTF-8" standalone="no"?>
<!-- Created with Inkscape (http://www.inkscape.org/) -->

<svg
   width="210mm"
   height="95mm"
   viewBox="0 0 210 95"
   version="1.1"
   id="svg5"
   inkscape:version="1.1.2 (0a00cf5339, 2022-02-04)"
   sodipodi:docname="terCAD-logo.svg"
   xmlns:inkscape="http://www.inkscape.org/namespaces/inkscape"
   xmlns:sodipodi="http://sodipodi.sourceforge.net/DTD/sodipodi-0.dtd"
   xmlns="http://www.w3.org/2000/svg"
   xmlns:svg="http://www.w3.org/2000/svg">
  <sodipodi:namedview
     id="namedview7"
     pagecolor="#ffffff"
     bordercolor="#111111"
     borderopacity="1"
     inkscape:pageshadow="0"
     inkscape:pageopacity="0"
     inkscape:pagecheckerboard="1"
     inkscape:document-units="mm"
     showgrid="false"
     inkscape:zoom="0.73139029"
     inkscape:cx="285.07351"
     inkscape:cy="477.85704"
     inkscape:window-width="1920"
     inkscape:window-height="1127"
     inkscape:window-x="0"
     inkscape:window-y="0"
     inkscape:window-maximized="1"
     inkscape:current-layer="layer1"
     height="120mm" />
  <defs
     id="defs2" />
  <g
     inkscape:label="Слой 1"
     inkscape:groupmode="layer"
     id="layer1">
    <path
       style="fill:#000000;stroke-width:0.537263"
       d="m 168.84554,82.91867 c -2.06847,-0.450229 -4.91816,-1.380172 -6.33265,-2.06655 -2.46404,-1.195683 -2.59402,-1.206496 -3.10158,-0.25811 -1.2087,2.258473 -5.34049,2.687579 -5.34049,0.554643 0,-0.537159 3.16682,-7.966928 7.03738,-16.510598 3.87058,-8.543669 7.61494,-16.826472 8.32085,-18.406212 l 1.28345,-2.872283 -3.19262,2.955817 c -1.75595,1.625687 -4.23104,3.705777 -5.50021,4.622409 -2.11591,1.528173 -2.86203,2.830676 -8.98199,15.679905 -4.37239,9.180095 -7.10426,14.294935 -7.92071,14.829902 -1.45305,0.952072 -3.66411,0.581508 -4.15443,-0.696247 -0.19405,-0.50571 1.45339,-4.912029 3.95711,-10.583903 2.35928,-5.344608 4.21941,-9.78766 4.13363,-9.873448 -0.0857,-0.08574 -3.10002,2.015486 -6.69827,4.669499 l -6.54229,4.825496 -2.95863,5.899326 c -3.13719,6.255362 -3.97331,6.993856 -7.04551,6.222786 -1.21666,-0.305366 -1.36746,-0.575705 -1.15641,-2.072977 0.13356,-0.947 0.41802,-2.123327 0.63228,-2.614051 0.28158,-0.644893 -0.77554,-0.313971 -3.81328,1.193687 -7.75973,3.851235 -13.24485,4.500392 -17.89045,2.117326 -4.408908,-2.26164 -5.40344,-4.54911 -5.329394,-12.257899 0.06808,-7.091841 -0.338278,-9.344283 -1.96098,-10.86874 -2.720917,-2.556164 -9.488218,-0.465033 -17.343331,5.359182 -4.125152,3.058615 -4.211686,3.172791 -7.800882,10.29532 -3.657286,7.25766 -5.027605,9.082808 -6.81934,9.082808 -2.293318,0 -3.060595,-2.123234 -1.83226,-5.070309 0.36569,-0.877417 0.141025,-0.817504 -1.431055,0.381545 -5.133767,3.915715 -12.146209,5.538722 -16.985707,3.93131 -2.914758,-0.968123 -6.428088,-4.039775 -6.936186,-6.064201 -0.170794,-0.680514 -0.350591,-1.237274 -0.399544,-1.237274 -0.04895,0 -4.072364,1.706282 -8.940908,3.791763 -5.404583,2.315081 -9.932461,3.911756 -11.626531,4.099886 -2.504634,0.278136 -2.915282,0.167463 -4.220018,-1.137263 -1.302734,-1.302746 -1.408791,-1.694113 -1.074592,-3.965577 0.751874,-5.110271 3.33054,-11.441963 10.0774,-24.744149 3.801596,-7.495286 6.833613,-13.706147 6.737818,-13.801956 -0.397924,-0.397916 -6.735424,2.550422 -9.252804,4.304601 -1.494212,1.04121 -4.733243,3.721494 -7.19785,5.956194 C 8.7799483,50.825012 6.4831504,52.561433 6.1405599,52.449009 5.2634295,52.161202 5.0525954,48.45774 5.8093367,46.63081 7.4524924,42.663877 14.644074,38.109939 24.238428,34.960937 l 6.2605,-2.054794 5.406573,-10.973839 c 2.973617,-6.035616 5.935604,-11.391555 6.582196,-11.902109 1.506688,-1.1896667 4.839705,-1.2338931 5.799882,-0.076909 0.630522,0.759724 0.02714,2.222974 -4.573227,11.090255 -4.747398,9.150717 -5.1661,10.181708 -4.018466,9.89489 3.193259,-0.798041 11.041308,-1.981647 13.139569,-1.981647 1.273579,0 2.489218,0.280924 2.70142,0.624273 0.799442,1.293532 -1.981794,2.435713 -9.382201,3.853046 -4.1643,0.797553 -8.167761,1.676798 -8.896577,1.953899 -0.997855,0.379381 -2.358065,2.533411 -5.507571,8.721762 -5.803456,11.403007 -14.671466,31.233543 -14.192211,31.736451 0.516282,0.541743 18.286136,-6.222161 18.902234,-7.194946 0.258794,-0.408621 0.474235,-1.262342 0.478761,-1.897167 0.01447,-2.026116 4.684526,-10.558531 7.508294,-13.71792 5.434853,-6.080817 13.387292,-8.261634 17.371181,-4.76374 2.80908,2.466417 3.796332,6.90956 2.320244,10.442346 -1.670843,3.998884 -9.721781,9.407425 -17.788776,11.950324 -3.177958,1.001766 -3.37476,1.378452 -2.195153,4.201649 2.332349,5.582097 10.521456,3.165009 20.195329,-5.960838 3.533166,-3.333005 4.235764,-4.381327 8.075028,-12.04857 3.514784,-7.019258 4.469353,-8.507377 5.814513,-9.064563 3.63394,-1.505223 4.956652,1.041133 2.768646,5.329972 l -1.068989,2.09538 3.083729,-1.428054 c 4.031384,-1.866923 9.7286,-2.240807 12.475102,-0.818692 2.072795,1.073253 4.226245,3.930732 4.685752,6.217593 0.16451,0.818768 0.44921,1.579709 0.63266,1.691006 0.18346,0.111328 2.37238,-4.18514 4.86427,-9.547597 7.33038,-15.774694 15.438,-31.689239 18.40058,-36.118646 3.54043,-5.293377 6.2125,-6.7142277 12.70708,-6.7568094 8.64713,-0.056654 11.45201,3.5986844 8.76018,11.4165924 -1.45945,4.238764 -5.35603,11.768377 -6.27204,12.119889 -1.1864,0.455271 -3.4761,-0.270323 -3.83923,-1.216638 -0.1776,-0.462824 0.92416,-3.410813 2.47438,-6.620794 1.53699,-3.182568 2.81718,-6.583374 2.84487,-7.557331 0.12625,-4.44162 -6.43367,-4.929665 -10.57648,-0.786847 -3.09709,3.097085 -21.8407,41.294968 -25.25663,51.470873 -1.54897,4.614339 -1.41183,6.259428 0.65752,7.887187 1.89892,1.493709 4.92743,1.347399 10.21633,-0.493573 4.84454,-1.6863 13.19675,-6.593243 14.47933,-8.506661 0.44295,-0.660777 4.5176,-9.205543 9.05479,-18.98836 10.91107,-23.52579 13.37232,-27.99129 18.40076,-33.385089 2.92959,-3.142454 6.78713,-4.7181135 11.55083,-4.7181135 3.99229,0 5.48063,0.8529886 6.23116,3.5711655 1.03314,3.741749 -0.75281,9.344192 -6.86841,21.545864 -2.1105,4.210787 -3.57698,7.655987 -3.25887,7.655987 0.31813,0 2.91875,-2.357236 5.77917,-5.238306 l 5.20076,-5.238321 4.56673,-10.405688 c 5.60303,-12.7669761 6.57866,-13.7343382 11.69539,-11.5964373 4.1486,1.7334073 6.4186,5.1080643 8.38927,12.4717833 3.06195,11.441552 3.00025,23.796722 -0.18167,36.377699 -3.08286,12.189336 -8.33005,19.969125 -16.14215,23.933285 -3.14101,1.593873 -10.42283,1.9447 -15.84925,0.763592 z m 12.69829,-5.455478 c 2.04811,-0.654975 3.66588,-1.704576 5.58964,-3.626523 4.55778,-4.553527 9.06918,-15.297538 10.48272,-24.964839 0.82152,-5.618465 0.37903,-19.513839 -0.7542,-23.683826 -2.0868,-7.678878 -4.21436,-11.53989 -6.15315,-11.166508 -0.61809,0.119095 -5.27986,9.694486 -14.72906,30.254057 -7.60361,16.543951 -13.83043,30.346897 -13.83739,30.673219 -0.0122,0.54316 5.92042,2.538315 9.12084,3.067662 3.23317,0.534768 7.61582,0.298924 10.2806,-0.553242 z M 48.616728,64.943787 c 5.663447,-2.83005 9.821317,-7.204509 9.821317,-10.332921 0,-4.57561 -6.059019,-2.659907 -10.432998,3.298647 -1.756685,2.393087 -4.073096,7.035417 -4.073096,8.162917 0,0.862827 1.350709,0.537418 4.684777,-1.128643 z m 99.696532,-11.234141 6.29652,-4.527927 4.56746,-8.15617 c 5.01231,-8.95054 9.45367,-18.079281 10.48779,-21.556524 1.29612,-4.358255 -0.82092,-6.897133 -4.47172,-5.362777 -2.35671,0.990496 -5.82187,4.893906 -7.48001,8.426052 -0.75709,1.612742 -4.57553,9.943534 -8.48543,18.512865 -3.9099,8.569346 -7.34444,16.031691 -7.63231,16.582999 -0.72561,1.38963 -0.39816,1.198622 6.7177,-3.918518 z"
       id="path21" />
  </g>
</svg>
